# xmcd CD database file
#
# Track frame offsets:
#	150
#	20920
#	35434
#	54000
#	68185
#	83616
#	99124
#	112727
#	131040
#	140435
#
# Disc length: 2272 seconds
#
# Revision: 6
# Processed by: cddbd v1.5.2PL0 Copyright (c) Steve Scherf et al.
# Submitted via: CDex 1.70beta2
#
DISCID=7708de0a
DTITLE=Neil Young - Harvest
DYEAR=1900
DGENRE=Country
TTITLE0=Out On The Weekend
TTITLE1=Harvest
TTITLE2=A Man Needs A Maid
TTITLE3=Heart Of Gold
TTITLE4=Are You Ready For The Country?
TTITLE5=Old Man
TTITLE6=There's A World
TTITLE7=Alabama
TTITLE8=Needle And The Damage Done
TTITLE9=Words (Between The Lines Of Age)
EXTD=
EXTT0=
EXTT1=
EXTT2=
EXTT3=
EXTT4=
EXTT5=
EXTT6=
EXTT7=
EXTT8=
EXTT9=
PLAYORDER=
